<svg xmlns="http://www.w3.org/2000/svg" width="522.419" height="66.192" viewBox="0 0 522.419 66.192">
  <g id="Group_12018" data-name="Group 12018" transform="translate(-59 -165)">
    <path id="Path_18983" data-name="Path 18983" d="M12.692,0H21.5l7.848-26.226L37.236,0H46L58.377-40H47.967L41.08-15.015,33.553-40H25.185L17.617-14.935,10.811-40H.4ZM79.908.8c12.372,0,20.5-9.569,20.5-20.9,0-11.291-8.128-20.74-20.5-20.74s-20.5,9.449-20.5,20.74C59.408-8.769,67.536.8,79.908.8Zm0-8.408c-7.367,0-10.33-5.926-10.33-12.492s2.963-12.292,10.33-12.292c7.407,0,10.33,5.726,10.33,12.292S87.316-7.607,79.908-7.607ZM107.926,0h9.449V-16.9c0-10.17,4.765-14.414,9.329-14.414a7.806,7.806,0,0,1,4.364,1.361l4.444-8.008a10.282,10.282,0,0,0-7.327-2.883,11.385,11.385,0,0,0-10.73,7.567V-40h-9.529Zm32.542,0h9.77V-11.731l6.166-6.807L168.135,0h11.531L163.05-24.5,178.025-40H165.333L150.238-23.383V-56.575h-9.77Zm44.274,0h9.77V-21.9c0-6.967,3.443-9.93,8.929-9.93,5,0,7.647,3.8,7.647,9.049V0h9.77V-24.023c0-8.368-4.124-16.816-14.614-16.816a15.163,15.163,0,0,0-11.731,5.485V-40h-9.77Zm62.972.8c12.372,0,20.5-9.569,20.5-20.9,0-11.291-8.128-20.74-20.5-20.74s-20.5,9.449-20.5,20.74C227.214-8.769,235.342.8,247.714.8Zm0-8.408c-7.367,0-10.33-5.926-10.33-12.492s2.963-12.292,10.33-12.292c7.407,0,10.33,5.726,10.33,12.292S255.121-7.607,247.714-7.607ZM289.785.8c4.4,0,8.849-1.521,11.611-5.325L301.837,0h9.089V-56.575H301V-36c-2.763-3.443-7.207-4.845-11.371-4.845-11.091,0-17.177,9.77-17.177,20.82C272.448-8.849,278.534.8,289.785.8Zm2.362-8.849c-6.727,0-9.77-5.245-9.77-11.972,0-6.646,3.043-11.972,9.77-11.972s9.689,5.245,9.689,11.972C301.837-13.213,298.874-8.048,292.147-8.048ZM338.943.8a20.9,20.9,0,0,0,16.416-7.207l-6.727-5.886a12.148,12.148,0,0,1-9.609,4.244c-6.286,0-9.169-3.523-10.01-8.769h27.467a15.91,15.91,0,0,0,.36-3.844c0-8.929-4.524-20.18-18.538-20.18-13.533,0-19.619,10.57-19.619,20.98C318.684-9.089,325.17.8,338.943.8Zm-9.93-24.664c.921-5,3.443-8.769,9.209-8.769,4.244,0,7.688,2.122,8.688,6.246a8.721,8.721,0,0,1,.32,2.522Z" transform="translate(168 222)" fill="#545454"/>
    <path id="Path_18984" data-name="Path 18984" d="M5.1,0h6.221V-6.7H5.1ZM28.761-25.9A12.414,12.414,0,0,0,18.1-20.338L22.82-16.91a6.872,6.872,0,0,1,5.992-3.58c4.037,0,5.154,1.6,5.281,5.357H27.187c-5.662,0-10.08,1.828-10.08,7.338,0,5.307,4.012,8.3,9.217,8.3,2.895,0,6.3-1.295,7.922-3.91L34.627,0h5.1V-15.387C39.73-21.582,35.668-25.9,28.761-25.9ZM27.568-4.723c-2.768,0-4.113-1.193-4.113-2.869,0-1.6,1.295-3.072,4.113-3.072h6.551v.2A6.437,6.437,0,0,1,27.568-4.723ZM45.919-30.164h6.5v-5.713h-6.5ZM46.072,0h6.2V-25.365h-6.2Z" transform="translate(529 221)" fill="#545454"/>
    <g id="Group_12017" data-name="Group 12017">
      <circle id="Ellipse_6937" data-name="Ellipse 6937" cx="12" cy="12" r="12" transform="translate(137 170)" fill="#64ccc9"/>
      <path id="Path_18981" data-name="Path 18981" d="M895,3989.106h0v-40.052h0c0-.018,0-.036,0-.054a12,12,0,1,1,24,0c0,.018,0,.036,0,.054h0v40.052h0a12,12,0,0,1-24,0Z" transform="matrix(0.819, -0.574, 0.574, 0.819, -2932.312, -2532.885)" fill="#545454"/>
      <path id="Path_18982" data-name="Path 18982" d="M895,3989.106h0v-40.052h0c0-.018,0-.036,0-.054a12,12,0,1,1,24,0c0,.018,0,.036,0,.054h0v40.052h0a12,12,0,0,1-24,0Z" transform="matrix(0.819, -0.574, 0.574, 0.819, -2895.312, -2532.885)" fill="#e89cae"/>
    </g>
  </g>
</svg>
